<?xml version="1.0" standalone="no"?>
<!DOCTYPE svg PUBLIC "-//W3C//DTD SVG 20010904//EN"
 "http://www.w3.org/TR/2001/REC-SVG-20010904/DTD/svg10.dtd">
<svg version="1.0" xmlns="http://www.w3.org/2000/svg"
 width="500.000000pt" height="500.000000pt" viewBox="0 0 500.000000 500.000000"
 preserveAspectRatio="xMidYMid meet">

<g transform="translate(0.000000,500.000000) scale(0.100000,-0.100000)"
fill="#000000" stroke="none">
<path d="M2240 4180 c-578 -61 -1085 -410 -1340 -925 -145 -291 -198 -557
-178 -880 55 -879 799 -1575 1683 -1575 267 0 499 54 740 170 480 232 812 659
927 1191 19 89 22 135 22 324 1 190 -2 235 -21 331 -142 696 -688 1229 -1382
1348 -116 20 -338 28 -451 16z m445 -95 c315 -56 599 -198 830 -417 330 -312
505 -717 505 -1170 0 -170 -11 -259 -50 -414 -147 -584 -634 -1045 -1239
-1175 -125 -27 -382 -36 -517 -19 -443 55 -858 301 -1117 661 -121 168 -227
412 -271 619 -107 507 51 1055 413 1432 267 279 577 439 959 493 120 18 361
13 487 -10z"/>
<path d="M1430 3010 l0 -440 80 0 80 0 0 355 0 356 111 -3 111 -3 70 -150 c38
-82 144 -311 235 -508 l167 -358 134 3 135 3 114 245 c62 135 168 363 235 508
l122 262 103 0 103 0 0 -360 0 -360 85 0 85 0 0 447 0 446 -127 -6 c-71 -4
-187 -7 -259 -7 l-131 0 -192 -412 c-105 -227 -211 -453 -234 -501 l-42 -88
-124 268 c-68 147 -174 375 -234 506 l-111 237 -258 0 -258 0 0 -440z"/>
<path d="M2880 1985 l0 -445 260 0 260 0 0 445 0 445 -80 0 -80 0 0 -360 0
-360 -85 0 -85 0 0 360 0 360 -95 0 -95 0 0 -445z"/>
<path d="M1440 1980 l0 -440 250 0 250 0 0 440 0 440 -85 0 -85 0 0 -360 0
-360 -85 0 -85 0 0 360 0 360 -80 0 -80 0 0 -440z"/>
</g>
</svg>
